# xmcd
#
# Track frame offsets:
#	150
#	17645
#	30850
#	45765
#	65747
#	83300
#	101540
#	117770
#	134655
#	148280
#	165780
#	183050
#
# Disc length: 2678 seconds
#
# Revision: 11
# Processed by: cddbd v1.5.2PL0 Copyright (c) Steve Scherf et al.
# Submitted via: EZCDAudioConverter 2.4.0.1
#
DISCID=870a740c
DTITLE=Zezé Di Camargo and Luciano - Coração Está Em Pedaços
DYEAR=1992
DGENRE=Sertanejo
TTITLE0=Coração Está Em Pedaços
TTITLE1=Muda De Vida
TTITLE2=Cara Ou Coroa (A Cara O Cruz)
TTITLE3=Voando Sem Asas
TTITLE4=Leva Minha Timidez
TTITLE5=Garoto De Rua
TTITLE6=Coração Na Contra-Mão
TTITLE7=Me Leva Pra Casa
TTITLE8=Não Tem Jeito Não
TTITLE9=Por Deus
TTITLE10=Linda, Linda
TTITLE11=Cama De Capim
EXTD=
EXTT0=
EXTT1=
EXTT2=
EXTT3=
EXTT4=
EXTT5=
EXTT6=
EXTT7=
EXTT8=
EXTT9=
EXTT10=
EXTT11=
PLAYORDER=
